<svg width="40" height="40" viewBox="0 0 40 40" fill="none" xmlns="http://www.w3.org/2000/svg">
<path d="M20 21.6666C20.9205 21.6666 21.6667 20.9205 21.6667 20C21.6667 19.0795 20.9205 18.3333 20 18.3333C19.0795 18.3333 18.3333 19.0795 18.3333 20C18.3333 20.9205 19.0795 21.6666 20 21.6666Z" fill="#F9FAFB"/>
<path d="M26.6667 21.6666C27.5872 21.6666 28.3333 20.9205 28.3333 20C28.3333 19.0795 27.5872 18.3333 26.6667 18.3333C25.7462 18.3333 25 19.0795 25 20C25 20.9205 25.7462 21.6666 26.6667 21.6666Z" fill="#F9FAFB"/>
<path d="M13.3333 21.6666C14.2538 21.6666 15 20.9205 15 20C15 19.0795 14.2538 18.3333 13.3333 18.3333C12.4129 18.3333 11.6667 19.0795 11.6667 20C11.6667 20.9205 12.4129 21.6666 13.3333 21.6666Z" fill="#F9FAFB"/>
<path d="M31.7833 8.21668C29.0487 5.46418 25.4394 3.75204 21.5777 3.37542C17.716 2.9988 13.8439 3.98131 10.629 6.15357C7.41404 8.32583 5.05773 11.5517 3.96628 15.275C2.87483 18.9984 3.11663 22.9859 4.65001 26.55C4.80982 26.8813 4.86226 27.2542 4.80001 27.6167L3.33334 34.6667C3.27683 34.937 3.28837 35.2171 3.36692 35.4818C3.44547 35.7465 3.58856 35.9876 3.78334 36.1833C3.94301 36.3419 4.13313 36.4664 4.34223 36.5495C4.55133 36.6325 4.77508 36.6724 5.00001 36.6667H5.33334L12.4667 35.2334C12.8292 35.1898 13.1969 35.2415 13.5333 35.3834C17.0975 36.9167 21.085 37.1585 24.8083 36.0671C28.5317 34.9756 31.7575 32.6193 33.9298 29.4044C36.102 26.1894 37.0846 22.3173 36.7079 18.4556C36.3313 14.594 34.6192 10.9847 31.8667 8.25002L31.7833 8.21668ZM33.1667 22.15C32.8408 24.14 32.0678 26.0301 30.9059 27.6782C29.744 29.3263 28.2234 30.6893 26.4586 31.6648C24.6938 32.6403 22.7307 33.2027 20.717 33.3099C18.7034 33.417 16.6917 33.066 14.8333 32.2834C14.1742 32.003 13.4662 31.8557 12.75 31.85C12.4371 31.8522 12.125 31.8801 11.8167 31.9334L7.11667 32.8834L8.06667 28.1834C8.25588 27.1655 8.13391 26.1142 7.71667 25.1667C6.93399 23.3083 6.58302 21.2966 6.69016 19.283C6.7973 17.2694 7.35978 15.3063 8.33524 13.5414C9.31071 11.7766 10.6738 10.256 12.3218 9.0941C13.9699 7.93218 15.86 7.15921 17.85 6.83335C19.9388 6.49054 22.0792 6.64997 24.0941 7.29845C26.1091 7.94693 27.9407 9.06582 29.4374 10.5626C30.9342 12.0593 32.0531 13.8909 32.7016 15.9059C33.35 17.9208 33.5095 20.0612 33.1667 22.15Z" fill="#F9FAFB"/>
</svg>
