<svg width="40" height="40" viewBox="0 0 40 40" fill="none" xmlns="http://www.w3.org/2000/svg">
<path d="M34.0333 16.9667L21.1833 3.83339C21.0284 3.67718 20.8441 3.55319 20.641 3.46857C20.4379 3.38396 20.22 3.34039 20 3.34039C19.78 3.34039 19.5621 3.38396 19.359 3.46857C19.1559 3.55319 18.9716 3.67718 18.8167 3.83339L5.96668 16.9834C5.65574 17.2968 5.41017 17.6689 5.24422 18.0781C5.07828 18.4872 4.99527 18.9252 5.00001 19.3667V33.3334C4.99872 34.1866 5.32463 35.0078 5.91063 35.6279C6.49664 36.248 7.29811 36.6198 8.15001 36.6667H31.85C32.7019 36.6198 33.5034 36.248 34.0894 35.6279C34.6754 35.0078 35.0013 34.1866 35 33.3334V19.3667C35.0013 18.4716 34.6547 17.611 34.0333 16.9667V16.9667ZM16.6667 33.3334V23.3334H23.3333V33.3334H16.6667ZM31.6667 33.3334H26.6667V21.6667C26.6667 21.2247 26.4911 20.8008 26.1785 20.4882C25.866 20.1757 25.442 20.0001 25 20.0001H15C14.558 20.0001 14.1341 20.1757 13.8215 20.4882C13.5089 20.8008 13.3333 21.2247 13.3333 21.6667V33.3334H8.33334V19.3001L20 7.38339L31.6667 19.3667V33.3334Z" fill="#F9FAFB"/>
</svg>
