<svg width="40" height="40" viewBox="0 0 40 40" fill="none" xmlns="http://www.w3.org/2000/svg">
<path d="M20 18.3333C21.3185 18.3333 22.6075 17.9423 23.7038 17.2098C24.8001 16.4773 25.6546 15.4361 26.1592 14.2179C26.6638 12.9997 26.7958 11.6593 26.5386 10.3661C26.2813 9.07286 25.6464 7.88497 24.714 6.95262C23.7817 6.02027 22.5938 5.38534 21.3006 5.1281C20.0074 4.87087 18.667 5.00289 17.4488 5.50747C16.2306 6.01206 15.1894 6.86654 14.4569 7.96287C13.7243 9.0592 13.3333 10.3481 13.3333 11.6667C13.3333 13.4348 14.0357 15.1305 15.286 16.3807C16.5362 17.631 18.2319 18.3333 20 18.3333ZM20 8.33334C20.6593 8.33334 21.3037 8.52883 21.8519 8.8951C22.4001 9.26138 22.8273 9.78197 23.0796 10.3911C23.3319 11.0001 23.3979 11.6704 23.2693 12.317C23.1407 12.9636 22.8232 13.5575 22.357 14.0237C21.8909 14.4899 21.2969 14.8073 20.6503 14.936C20.0037 15.0646 19.3335 14.9986 18.7244 14.7463C18.1153 14.494 17.5947 14.0667 17.2284 13.5186C16.8622 12.9704 16.6667 12.3259 16.6667 11.6667C16.6667 10.7826 17.0179 9.93477 17.643 9.30965C18.2681 8.68453 19.1159 8.33334 20 8.33334Z" fill="#F9FAFB"/>
<path d="M20 21.6667C16.9058 21.6667 13.9384 22.8959 11.7504 25.0838C9.56251 27.2717 8.33334 30.2392 8.33334 33.3334C8.33334 33.7754 8.50894 34.1993 8.8215 34.5119C9.13406 34.8244 9.55798 35 10 35C10.442 35 10.866 34.8244 11.1785 34.5119C11.4911 34.1993 11.6667 33.7754 11.6667 33.3334C11.6667 31.1232 12.5447 29.0036 14.1075 27.4408C15.6703 25.878 17.7899 25 20 25C22.2101 25 24.3298 25.878 25.8926 27.4408C27.4554 29.0036 28.3333 31.1232 28.3333 33.3334C28.3333 33.7754 28.5089 34.1993 28.8215 34.5119C29.1341 34.8244 29.558 35 30 35C30.442 35 30.866 34.8244 31.1785 34.5119C31.4911 34.1993 31.6667 33.7754 31.6667 33.3334C31.6667 30.2392 30.4375 27.2717 28.2496 25.0838C26.0617 22.8959 23.0942 21.6667 20 21.6667Z" fill="#F9FAFB"/>
</svg>
