<svg width="40" height="40" viewBox="0 0 40 40" fill="none" xmlns="http://www.w3.org/2000/svg">
<path d="M20 11.6667C18.251 11.6667 16.5463 12.217 15.1274 13.2397C13.7085 14.2623 12.6474 15.7055 12.0943 17.3648C11.5412 19.0241 11.5242 20.8153 12.0457 22.4847C12.5672 24.1542 13.6008 25.6173 15 26.6667V33.3334C15 34.2174 15.3512 35.0653 15.9763 35.6904C16.6014 36.3155 17.4493 36.6667 18.3333 36.6667H21.6667C22.5507 36.6667 23.3986 36.3155 24.0237 35.6904C24.6488 35.0653 25 34.2174 25 33.3334V26.6667C26.3992 25.6173 27.4328 24.1542 27.9543 22.4847C28.4758 20.8153 28.4588 19.0241 27.9057 17.3648C27.3526 15.7055 26.2915 14.2623 24.8726 13.2397C23.4537 12.217 21.749 11.6667 20 11.6667ZM22.5 24.3167C22.2457 24.4635 22.0346 24.675 21.8883 24.9296C21.742 25.1842 21.6655 25.473 21.6667 25.7667V33.3334H18.3333V25.7667C18.3345 25.473 18.258 25.1842 18.1117 24.9296C17.9654 24.675 17.7543 24.4635 17.5 24.3167C16.7419 23.879 16.112 23.2499 15.6732 22.4924C15.2345 21.7349 15.0024 20.8754 15 20C15 18.6739 15.5268 17.4022 16.4645 16.4645C17.4021 15.5268 18.6739 15 20 15C21.3261 15 22.5979 15.5268 23.5355 16.4645C24.4732 17.4022 25 18.6739 25 20C24.9976 20.8754 24.7655 21.7349 24.3268 22.4924C23.888 23.2499 23.2581 23.879 22.5 24.3167Z" fill="#F9FAFB"/>
<path d="M20 9.99998C20.442 9.99998 20.8659 9.82438 21.1785 9.51182C21.4911 9.19926 21.6667 8.77534 21.6667 8.33331V4.99998C21.6667 4.55795 21.4911 4.13403 21.1785 3.82147C20.8659 3.50891 20.442 3.33331 20 3.33331C19.558 3.33331 19.134 3.50891 18.8215 3.82147C18.5089 4.13403 18.3333 4.55795 18.3333 4.99998V8.33331C18.3333 8.77534 18.5089 9.19926 18.8215 9.51182C19.134 9.82438 19.558 9.99998 20 9.99998Z" fill="#F9FAFB"/>
<path d="M35 18.3333H31.6667C31.2246 18.3333 30.8007 18.5089 30.4882 18.8215C30.1756 19.134 30 19.558 30 20C30 20.442 30.1756 20.8659 30.4882 21.1785C30.8007 21.4911 31.2246 21.6666 31.6667 21.6666H35C35.442 21.6666 35.866 21.4911 36.1785 21.1785C36.4911 20.8659 36.6667 20.442 36.6667 20C36.6667 19.558 36.4911 19.134 36.1785 18.8215C35.866 18.5089 35.442 18.3333 35 18.3333Z" fill="#F9FAFB"/>
<path d="M8.33334 18.3333H5C4.55798 18.3333 4.13405 18.5089 3.82149 18.8215C3.50893 19.134 3.33334 19.558 3.33334 20C3.33334 20.442 3.50893 20.8659 3.82149 21.1785C4.13405 21.4911 4.55798 21.6666 5 21.6666H8.33334C8.77536 21.6666 9.19929 21.4911 9.51185 21.1785C9.82441 20.8659 10 20.442 10 20C10 19.558 9.82441 19.134 9.51185 18.8215C9.19929 18.5089 8.77536 18.3333 8.33334 18.3333Z" fill="#F9FAFB"/>
<path d="M12.7667 10.7L10.3667 8.33331C10.0418 8.0261 9.60816 7.86053 9.1612 7.87304C8.71424 7.88554 8.29055 8.07508 7.98334 8.39997C7.67613 8.72486 7.51057 9.15849 7.52307 9.60545C7.53557 10.0524 7.72511 10.4761 8.05001 10.7833L10.45 13.1C10.6111 13.2555 10.8018 13.377 11.0108 13.4571C11.2199 13.5373 11.4429 13.5746 11.6667 13.5666C11.8912 13.5658 12.1132 13.5196 12.3194 13.4308C12.5256 13.342 12.7118 13.2125 12.8667 13.05C13.1642 12.7247 13.3207 12.2948 13.3019 11.8543C13.2832 11.4139 13.0907 10.9988 12.7667 10.7Z" fill="#F9FAFB"/>
<path d="M31.9833 8.41672C31.6711 8.1063 31.2486 7.93207 30.8083 7.93207C30.368 7.93207 29.9456 8.1063 29.6333 8.41672L27.2333 10.7001C26.9229 11.0123 26.7487 11.4347 26.7487 11.8751C26.7487 12.3154 26.9229 12.7378 27.2333 13.0501C27.3882 13.2126 27.5744 13.3421 27.7806 13.4309C27.9868 13.5197 28.2088 13.5659 28.4333 13.5667C28.8624 13.565 29.2744 13.3979 29.5833 13.1001L31.9833 10.7834C32.1395 10.6285 32.2635 10.4441 32.3482 10.241C32.4328 10.0379 32.4763 9.82008 32.4763 9.60006C32.4763 9.38004 32.4328 9.16219 32.3482 8.95909C32.2635 8.756 32.1395 8.57166 31.9833 8.41672Z" fill="#F9FAFB"/>
</svg>
